<svg version="1.1" id="Layer_1" xmlns="http://www.w3.org/2000/svg" xmlns:xlink="http://www.w3.org/1999/xlink" x="0px" y="0px"
	 width="100%" viewBox="0 0 1024 1024" enable-background="new 0 0 1024 1024" xml:space="preserve">
<path fill="#000000" opacity="1.000000" stroke="none" 
	d="
M394.000183,538.351929 
	C387.039001,538.352783 380.577698,538.352783 372.400970,538.352783 
	C419.457458,458.129211 465.837860,379.058228 512.951477,298.737305 
	C560.060791,379.042877 606.404541,458.043396 652.697998,536.958069 
	C650.621582,538.943115 648.695923,538.311584 646.966064,538.313416 
	C607.142700,538.354858 567.319214,538.350098 527.495789,538.345398 
	C520.684204,538.344604 520.677002,538.326843 520.667664,531.440002 
	C520.660156,525.941345 520.891296,520.431396 520.606140,514.947754 
	C520.388184,510.757111 521.984009,509.521790 526.063416,509.550018 
	C548.223511,509.703552 570.385193,509.631836 592.546326,509.617401 
	C595.011719,509.615784 597.542236,509.888245 600.835083,508.023132 
	C572.171326,457.889893 542.984863,408.235626 513.756409,358.739685 
	C511.246521,359.330902 510.743591,361.097046 509.944672,362.452362 
	C504.954529,370.917664 500.183563,379.515228 495.051941,387.892517 
	C493.176178,390.954651 493.991821,392.580811 496.592804,394.420380 
	C508.287109,402.691284 519.616882,411.515625 531.630981,419.285370 
	C543.087646,426.694702 547.329224,437.565338 548.160828,450.110779 
	C549.587280,471.629578 541.216553,484.170868 521.259460,492.321899 
	C506.707855,498.265228 509.443146,494.785553 509.203125,510.393158 
	C509.085266,518.056213 509.064636,525.724121 509.201324,533.386230 
	C509.265137,536.963806 508.004913,538.558044 504.273376,538.434082 
	C498.615417,538.246094 492.937897,538.187012 487.285522,538.443481 
	C483.124878,538.632202 481.819519,537.043274 481.833496,532.943848 
	C481.936401,502.785370 481.850494,472.626190 481.828522,442.467255 
	C481.821289,432.533203 481.827393,422.599182 481.226135,412.536194 
	C476.673828,419.708191 470.953644,425.724213 471.139282,435.429565 
	C471.722382,465.911041 471.357330,496.410339 471.397583,526.902710 
	C471.412659,538.324890 471.460541,538.325378 459.983307,538.329407 
	C438.155579,538.337036 416.327850,538.343933 394.000183,538.351929 
M521.623352,456.736969 
	C522.593262,446.218048 518.587830,439.461060 509.415100,436.960632 
	C509.415100,446.343048 509.312134,455.583527 509.483917,464.818878 
	C509.529633,467.276428 511.288422,467.690094 513.424622,466.637909 
	C517.362976,464.698151 520.018311,461.660522 521.623352,456.736969 
z"/>
<path fill="#000000" opacity="1.000000" stroke="none" 
	d="
M618.649414,731.626404 
	C679.818298,696.688538 718.159729,644.935425 729.082153,575.896545 
	C741.883606,494.980194 716.261230,426.272186 653.980042,372.400513 
	C623.074280,345.667786 586.929077,329.316650 546.354248,323.204071 
	C539.574036,322.182617 539.600037,315.876923 537.022095,311.205444 
	C559.450562,311.893005 580.576416,317.803802 600.918152,326.299744 
	C651.296631,347.340881 689.843018,381.919525 716.178833,429.741669 
	C766.374817,520.890564 747.490356,636.670959 672.235535,707.222290 
	C590.092102,784.231567 467.757080,790.204712 379.879303,728.616821 
	C292.632721,667.471497 258.250549,552.963440 298.273224,453.945526 
	C337.572174,356.718109 428.701050,313.726440 488.325348,311.250549 
	C487.635773,318.121826 483.807312,322.290436 477.445343,323.527313 
	C389.673340,340.591705 331.579590,391.842651 303.085144,476.288116 
	C292.095642,508.856293 290.920471,542.488708 296.778412,576.376343 
	C304.369843,620.291992 323.301422,658.647827 354.027161,690.802856 
	C384.098328,722.272827 420.539795,743.001221 463.080994,753.099304 
	C484.372253,758.153320 505.884308,759.939514 527.521118,758.416687 
	C559.612793,756.158081 590.064392,747.523804 618.649414,731.626404 
z"/>
<path fill="#000000" opacity="1.000000" stroke="none" 
	d="
M450.777039,650.643982 
	C450.119110,652.231079 449.757904,653.542114 449.109283,654.690979 
	C447.022919,658.386108 447.478058,664.596558 443.261017,665.674561 
	C437.716095,667.091919 431.535553,666.022644 424.643555,666.022644 
	C427.017303,660.329529 428.962189,655.442932 431.076965,650.630920 
	C440.717255,628.695374 450.526947,606.833008 459.978027,584.816589 
	C461.970551,580.175110 464.536316,578.883240 469.588379,578.378052 
	C479.207581,577.416260 483.768372,580.868835 487.441956,589.881348 
	C497.170410,613.748413 508.197845,637.085693 518.681458,660.645752 
	C519.339661,662.124939 520.468201,663.495789 519.991089,666.082153 
	C514.103577,666.082153 508.066132,666.182800 502.036072,666.017029 
	C500.362091,665.971008 499.820831,664.157349 499.234344,662.793579 
	C497.525482,658.819824 495.778961,654.858215 494.227264,650.822571 
	C493.256866,648.298706 491.696503,647.244324 488.956970,647.268677 
	C477.969788,647.366455 466.981140,647.328430 455.993195,647.290283 
	C453.648407,647.282104 451.655853,647.657715 450.777039,650.643982 
M471.762787,605.404541 
	C471.651672,605.092041 471.569977,604.763550 471.413940,604.475342 
	C471.356781,604.369873 471.049500,604.268982 470.983398,604.322571 
	C470.738281,604.521484 470.504181,604.760071 470.340240,605.028992 
	C467.461334,609.752075 471.045837,628.070312 475.489136,631.158142 
	C475.999359,631.512695 476.740204,631.666443 477.379425,631.681152 
	C479.864960,631.738220 482.573822,632.126892 483.580292,628.915344 
	C484.218384,626.879272 481.084381,618.840576 479.265625,618.844849 
	C474.022095,618.857117 474.681305,614.892212 474.191650,611.903809 
	C473.829163,609.691467 473.215881,607.725586 471.762787,605.404541 
z"/>
<path fill="#000000" opacity="1.000000" stroke="none" 
	d="
M620.812317,578.752136 
	C624.115112,579.569946 623.316650,581.944641 623.341187,583.774048 
	C623.462097,592.769592 623.409180,601.767456 623.524170,610.763123 
	C623.549194,612.721130 624.011108,614.673584 624.282532,616.708862 
	C626.947083,616.611389 627.902649,614.605286 629.183960,613.251648 
	C638.918335,602.967712 648.622925,592.653992 658.203491,582.227112 
	C660.523804,579.701904 662.973755,578.451294 666.466492,578.605225 
	C671.875366,578.843567 677.302429,578.668091 682.622192,578.668091 
	C683.144897,580.793701 681.728455,581.434326 680.885986,582.352661 
	C671.540649,592.539612 662.343628,602.871399 652.725647,612.794800 
	C649.400879,616.225159 649.680298,618.503967 652.412354,621.978943 
	C662.192017,634.417969 671.717773,647.057129 681.297913,659.652161 
	C682.576538,661.333191 684.338074,662.773132 684.668335,666.038391 
	C677.725952,666.038391 670.875305,666.214478 664.043823,665.929749 
	C662.029175,665.845703 661.065491,663.440430 659.837830,661.889954 
	C651.894226,651.857483 643.965393,641.813293 635.837158,631.526794 
	C628.808655,637.314575 622.965759,642.383179 623.685181,652.622559 
	C624.663940,666.551941 623.929565,666.473083 609.772949,666.378540 
	C605.842346,666.352356 604.588684,665.102173 604.608887,661.186523 
	C604.742371,635.362183 604.751709,609.536438 604.598083,583.712341 
	C604.574097,579.677185 606.034241,578.362183 609.838440,578.596313 
	C613.325012,578.810974 616.833130,578.676208 620.812317,578.752136 
z"/>
<path fill="#000000" opacity="1.000000" stroke="none" 
	d="
M352.897278,616.000000 
	C352.875610,604.839844 352.855743,594.179749 352.838928,583.519592 
	C352.835144,581.115845 352.726227,578.599365 356.233368,578.698486 
	C371.526733,579.130615 386.928040,577.182495 402.099823,579.803162 
	C414.673096,581.975037 424.228394,588.671814 426.780365,601.993408 
	C429.119385,614.203369 427.525665,625.704041 416.758972,633.958740 
	C410.181000,639.001953 402.396149,640.825439 394.294434,641.205933 
	C388.476410,641.479126 382.636414,641.379211 376.808167,641.299927 
	C373.676422,641.257324 372.370850,642.256897 372.551300,645.693054 
	C372.838867,651.168701 372.480591,656.675293 372.530823,662.167603 
	C372.557220,665.052551 371.540680,666.488892 368.447876,666.324524 
	C365.291901,666.156860 362.092163,666.012085 358.962097,666.339661 
	C353.938568,666.865417 352.785004,664.589966 352.855652,659.972107 
	C353.077332,645.484558 352.914215,630.991150 352.897278,616.000000 
M376.046112,594.436584 
	C372.721222,594.297302 372.351440,596.476440 372.360474,599.044189 
	C372.385681,606.189331 372.516815,613.339172 372.303589,620.478088 
	C372.189484,624.297546 374.055389,625.495850 377.394653,625.519531 
	C383.371704,625.561890 389.336884,625.755188 395.296204,624.824402 
	C403.406067,623.557739 408.514984,618.278992 408.651672,610.634827 
	C408.797943,602.453247 403.615936,596.555786 395.337036,595.240295 
	C389.223022,594.268860 383.080536,594.450500 376.046112,594.436584 
z"/>
<path fill="#000000" opacity="1.000000" stroke="none" 
	d="
M584.250183,598.291992 
	C581.415833,599.662415 579.558228,597.698425 577.472107,596.937683 
	C569.041382,593.863281 560.526489,591.934448 551.599182,594.471558 
	C547.170715,595.730103 543.616455,597.959351 543.334595,603.205811 
	C543.055847,608.394470 546.496155,610.742737 550.654236,612.043213 
	C559.383484,614.773438 568.305176,616.907166 576.974670,619.804199 
	C584.560303,622.339050 590.506653,626.898193 592.334717,635.393250 
	C594.765015,646.686646 589.899963,658.051636 579.261353,662.955139 
	C561.133423,671.310669 543.304443,669.057983 526.051086,659.834717 
	C523.286438,658.356812 522.249207,656.347290 524.013733,653.293152 
	C525.903137,650.023071 526.622681,646.139465 529.273193,642.740479 
	C535.492554,646.077087 541.391479,649.962646 548.393738,651.050110 
	C554.667969,652.024658 560.974365,652.572998 567.131897,650.353821 
	C570.673584,649.077454 573.348145,646.734680 573.481873,642.801636 
	C573.617249,638.818909 570.952515,636.517822 567.511169,634.994568 
	C562.293396,632.685120 556.682129,631.768311 551.232605,630.271606 
	C547.226135,629.171143 543.195312,628.070496 539.325134,626.580688 
	C530.332214,623.118896 524.659424,616.705811 523.891907,606.911133 
	C523.117065,597.023315 526.763794,588.832947 535.283569,583.445801 
	C546.473022,576.370728 558.802551,575.839172 571.431152,578.112549 
	C576.519165,579.028442 581.458252,580.507019 586.143738,582.784912 
	C588.631897,583.994568 589.732117,585.499451 588.456726,588.311157 
	C587.016541,591.486633 585.816650,594.771057 584.250183,598.291992 
z"/>
<path fill="#000000" opacity="1.000000" stroke="none" 
	d="
M487.518372,711.235657 
	C476.693542,711.575623 470.799866,707.019592 470.569183,698.519226 
	C470.360718,690.837280 474.420563,685.775818 481.802582,684.514343 
	C489.089966,683.269043 495.327454,687.116211 497.578583,694.244690 
	C499.682373,700.906738 496.556305,707.494141 489.826050,710.542236 
	C489.226227,710.813904 488.574310,710.970642 487.518372,711.235657 
M475.221100,698.387268 
	C476.199036,704.622559 480.631805,708.158813 486.082794,707.052124 
	C490.638580,706.127197 493.965912,701.808472 493.585236,697.314270 
	C493.191833,692.669250 488.972076,688.593872 484.364807,688.409302 
	C479.689423,688.222046 476.147827,691.775452 475.221100,698.387268 
z"/>
<path fill="#000000" opacity="1.000000" stroke="none" 
	d="
M544.098999,694.264282 
	C544.281921,691.014771 544.455200,688.213745 544.669006,684.758911 
	C550.258179,684.758911 555.527222,684.731873 560.795532,684.778564 
	C562.056519,684.789734 563.080261,685.315186 563.059998,686.838562 
	C563.039856,688.354919 561.972839,688.840088 560.742371,688.907471 
	C558.082520,689.052979 555.415955,689.131470 552.752075,689.133240 
	C550.270264,689.134827 549.074768,690.188477 549.172058,692.760193 
	C549.268188,695.302490 550.867798,695.678650 552.895203,695.679993 
	C555.059814,695.681396 557.225281,695.725037 559.388733,695.798157 
	C560.483337,695.835083 561.373352,696.328552 561.493469,697.503662 
	C561.637024,698.906982 560.782715,699.760925 559.480957,699.872131 
	C557.162537,700.070129 554.828369,700.108582 552.499634,700.153992 
	C550.283447,700.197266 549.111206,701.154175 549.124207,703.489441 
	C549.136963,705.781128 550.222961,706.837952 552.474976,706.858948 
	C555.306458,706.885315 558.140137,706.901550 560.967712,707.033386 
	C562.316040,707.096252 563.762756,707.405396 563.883240,709.126709 
	C564.013123,710.983093 562.550293,711.259583 561.184875,711.277710 
	C556.521179,711.339600 551.856323,711.309509 547.191895,711.321594 
	C545.079285,711.327026 544.273621,710.232910 544.272644,708.184448 
	C544.270508,703.693909 544.157227,699.203308 544.098999,694.264282 
z"/>
<path fill="#000000" opacity="1.000000" stroke="none" 
	d="
M432.660400,696.021729 
	C432.678619,692.865967 432.664978,690.204590 432.730164,687.545105 
	C432.759521,686.346619 432.987946,685.120239 434.530548,685.020874 
	C436.217316,684.912231 436.855835,686.020386 437.035095,687.494019 
	C437.115173,688.152344 437.233704,688.838806 437.133545,689.481079 
	C436.314056,694.737244 438.815094,696.047241 443.681183,695.782349 
	C450.290741,695.422546 450.282562,695.698364 450.718292,688.937988 
	C450.828461,687.228760 450.294769,684.863464 453.170380,684.999817 
	C455.611938,685.115601 455.254913,687.225952 455.269531,688.793579 
	C455.328308,695.112854 455.311096,701.433289 455.266052,707.752869 
	C455.255371,709.250977 455.195007,710.944275 453.080078,710.992920 
	C450.965424,711.041626 450.852448,709.399353 450.767548,707.865601 
	C450.703247,706.704102 450.633118,705.532166 450.715210,704.375427 
	C450.922424,701.455078 449.743042,699.976685 446.695526,700.161072 
	C445.370392,700.241333 444.024689,700.265320 442.707001,700.131226 
	C438.759827,699.729370 436.628967,701.119385 437.173218,705.406067 
	C437.256012,706.058228 437.193024,706.738525 437.124603,707.398315 
	C436.954132,709.042297 437.011322,711.040649 434.619629,710.911743 
	C432.520721,710.798645 432.691376,708.963562 432.675201,707.493591 
	C432.634979,703.835022 432.661194,700.175781 432.660400,696.021729 
z"/>
<path fill="#000000" opacity="1.000000" stroke="none" 
	d="
M520.914490,710.869202 
	C517.725769,711.107178 517.790771,709.084839 517.766113,707.247375 
	C517.708191,702.920349 517.579163,698.585693 517.768982,694.266785 
	C517.922241,690.780945 516.955994,688.857544 513.057495,689.151611 
	C511.321014,689.282654 508.925110,689.405457 509.134766,686.665894 
	C509.312225,684.346924 511.519135,684.747498 513.092896,684.723999 
	C517.918640,684.651855 522.746338,684.664307 527.572632,684.714478 
	C529.027161,684.729675 530.824768,684.579529 530.980652,686.697693 
	C531.136353,688.812744 529.432434,689.181946 527.927063,689.060486 
	C522.564636,688.627563 522.279785,691.804199 522.225037,695.980591 
	C522.160706,700.883118 523.439880,705.919495 520.914490,710.869202 
z"/>
<path fill="#000000" opacity="1.000000" stroke="none" 
	d="
M578.920898,688.361145 
	C579.141602,686.091614 579.656006,684.478394 581.953735,684.958801 
	C583.876038,685.360657 583.859314,687.116089 583.831848,688.565552 
	C583.746826,693.046997 583.628052,697.533447 583.313782,702.003235 
	C583.053833,705.701111 584.579956,707.180969 588.239258,706.906311 
	C590.550598,706.732849 592.889099,706.863586 595.212952,706.936218 
	C596.476440,706.975769 597.522583,707.514832 597.627991,708.937988 
	C597.758118,710.693848 596.574036,711.270569 595.099854,711.284363 
	C590.780151,711.324768 586.459656,711.308899 582.139771,711.280151 
	C579.031067,711.259460 578.900818,709.035095 578.897827,706.766174 
	C578.890076,700.783813 578.895691,694.801453 578.920898,688.361145 
z"/>
</svg>